<svg xmlns="http://www.w3.org/2000/svg">
  <defs>
    <svg id="logo" viewBox="-6.09 -6.09 183.45 60.181">
      <path fill="rgb(255,168,224)" d="M38.604 3.432 L54.09 8.297 L49.225 23.783 L33.739 18.918 L38.604 3.432 Z" />
      <path fill="rgb(85,148,255)" d="M-1.225 24.217 L14.261 29.082 L9.396 44.568 L-6.09 39.703 L-1.225 24.217 Z" />
      <path fill="rgb(255,112,117)" d="M29.082 33.739 L44.568 38.604 L39.703 54.09 L24.217 49.225 L29.082 33.739 Z" />
      <path fill="rgb(255,154,87)" d="M8.297 -6.09 L23.775 -1.227 L18.912 14.25 L3.434 9.387 L8.297 -6.09 Z" />
      <path fill="rgb(0,227,117)" d="M23.562 -1.294 L38.826 3.501 L33.814 19.455 L18.549 14.659 L23.562 -1.294 Z" />
      <path fill="rgb(255,216,131)" d="M3.501 9.174 L19.455 14.186 L14.659 29.451 L-1.294 24.438 L3.501 9.174 Z" />
      <path fill="rgb(137,226,255)" d="M33.341 18.549 L49.294 23.562 L44.499 38.826 L28.545 33.814 L33.341 18.549 Z" />
      <path fill="rgb(254,243,133)" d="M14.186 28.545 L29.451 33.341 L24.438 49.294 L9.174 44.499 L14.186 28.545 Z" />
      <path fill="rgb(175,145,232)" d="M18.766 13.97 L34.03 18.766 L29.234 34.03 L13.97 29.234 L18.766 13.97 Z" />
      <path fill="currentColor" d="M62.34 45.02 L62.34 45.02 Q62.34 46.14 61.77 47.08 L61.77 47.08 L61.77 47.08 Q61.2 48.02 60.09 48.58 L60.09 48.58 L60.09 48.58 Q58.98 49.14 57.4 49.14 L57.4 49.14 L57.4 49.14 Q55.02 49.14 53.48 47.98 L53.48 47.98 L53.48 47.98 Q51.94 46.82 51.8 44.74 L51.8 44.74 L55.44 44.74 L55.44 44.74 Q55.52 45.54 56.01 46 L56.01 46 L56.01 46 Q56.5 46.46 57.26 46.46 L57.26 46.46 L57.26 46.46 Q57.92 46.46 58.3 46.1 L58.3 46.1 L58.3 46.1 Q58.68 45.74 58.68 45.14 L58.68 45.14 L58.68 45.14 Q58.68 44.6 58.33 44.24 L58.33 44.24 L58.33 44.24 Q57.98 43.88 57.46 43.65 L57.46 43.65 L57.46 43.65 Q56.94 43.42 56.02 43.1 L56.02 43.1 L56.02 43.1 Q54.68 42.64 53.83 42.21 L53.83 42.21 L53.83 42.21 Q52.98 41.78 52.37 40.93 L52.37 40.93 L52.37 40.93 Q51.76 40.08 51.76 38.72 L51.76 38.72 L51.76 38.72 Q51.76 37.46 52.4 36.54 L52.4 36.54 L52.4 36.54 Q53.04 35.62 54.17 35.13 L54.17 35.13 L54.17 35.13 Q55.3 34.64 56.76 34.64 L56.76 34.64 L56.76 34.64 Q59.12 34.64 60.51 35.76 L60.51 35.76 L60.51 35.76 Q61.9 36.88 62.08 38.84 L62.08 38.84 L58.38 38.84 L58.38 38.84 Q58.28 38.14 57.87 37.73 L57.87 37.73 L57.87 37.73 Q57.46 37.32 56.76 37.32 L56.76 37.32 L56.76 37.32 Q56.16 37.32 55.79 37.64 L55.79 37.64 L55.79 37.64 Q55.42 37.96 55.42 38.58 L55.42 38.58 L55.42 38.58 Q55.42 39.08 55.75 39.43 L55.75 39.43 L55.75 39.43 Q56.08 39.78 56.58 40 L56.58 40 L56.58 40 Q57.08 40.22 58.02 40.56 L58.02 40.56 L58.02 40.56 Q59.38 41.02 60.24 41.47 L60.24 41.47 L60.24 41.47 Q61.1 41.92 61.72 42.78 L61.72 42.78 L61.72 42.78 Q62.34 43.64 62.34 45.02 L62.34 45.02 L62.34 45.02 Z M69.46 37.7 L69.46 37.7 Q71.12 37.7 72.43 38.39 L72.43 38.39 L72.43 38.39 Q73.74 39.08 74.49 40.38 L74.49 40.38 L74.49 40.38 Q75.24 41.68 75.24 43.42 L75.24 43.42 L75.24 43.42 Q75.24 45.16 74.49 46.46 L74.49 46.46 L74.49 46.46 Q73.74 47.76 72.43 48.45 L72.43 48.45 L72.43 48.45 Q71.12 49.14 69.46 49.14 L69.46 49.14 L69.46 49.14 Q67.8 49.14 66.48 48.45 L66.48 48.45 L66.48 48.45 Q65.16 47.76 64.41 46.46 L64.41 46.46 L64.41 46.46 Q63.66 45.16 63.66 43.42 L63.66 43.42 L63.66 43.42 Q63.66 41.68 64.41 40.38 L64.41 40.38 L64.41 40.38 Q65.16 39.08 66.48 38.39 L66.48 38.39 L66.48 38.39 Q67.8 37.7 69.46 37.7 L69.46 37.7 L69.46 37.7 Z M69.46 40.66 L69.46 40.66 Q68.48 40.66 67.81 41.37 L67.81 41.37 L67.81 41.37 Q67.14 42.08 67.14 43.42 L67.14 43.42 L67.14 43.42 Q67.14 44.76 67.81 45.46 L67.81 45.46 L67.81 45.46 Q68.48 46.16 69.46 46.16 L69.46 46.16 L69.46 46.16 Q70.44 46.16 71.1 45.46 L71.1 45.46 L71.1 45.46 Q71.76 44.76 71.76 43.42 L71.76 43.42 L71.76 43.42 Q71.76 42.08 71.1 41.37 L71.1 41.37 L71.1 41.37 Q70.44 40.66 69.46 40.66 L69.46 40.66 L69.46 40.66 Z M84.68 37.84 L88.12 37.84 L88.12 49 L84.68 49 L84.68 46.98 L84.68 46.98 Q84.2 47.96 83.25 48.54 L83.25 48.54 L83.25 48.54 Q82.3 49.12 81.04 49.12 L81.04 49.12 L81.04 49.12 Q79.12 49.12 77.99 47.84 L77.99 47.84 L77.99 47.84 Q76.86 46.56 76.86 44.32 L76.86 44.32 L76.86 37.84 L80.26 37.84 L80.26 43.9 L80.26 43.9 Q80.26 45.04 80.85 45.67 L80.85 45.67 L80.85 45.67 Q81.44 46.3 82.44 46.3 L82.44 46.3 L82.44 46.3 Q83.48 46.3 84.08 45.64 L84.08 45.64 L84.08 45.64 Q84.68 44.98 84.68 43.76 L84.68 43.76 L84.68 37.84 L84.68 37.84 Z M97.56 37.72 L97.56 37.72 Q99.48 37.72 100.61 39 L100.61 39 L100.61 39 Q101.74 40.28 101.74 42.52 L101.74 42.52 L101.74 49 L98.32 49 L98.32 42.92 L98.32 42.92 Q98.32 41.8 97.73 41.17 L97.73 41.17 L97.73 41.17 Q97.14 40.54 96.16 40.54 L96.16 40.54 L96.16 40.54 Q95.12 40.54 94.51 41.2 L94.51 41.2 L94.51 41.2 Q93.9 41.86 93.9 43.08 L93.9 43.08 L93.9 49 L90.48 49 L90.48 37.84 L93.9 37.84 L93.9 39.88 L93.9 39.88 Q94.38 38.88 95.33 38.3 L95.33 38.3 L95.33 38.3 Q96.28 37.72 97.56 37.72 L97.56 37.72 L97.56 37.72 Z M108.24 37.7 L108.24 37.7 Q109.52 37.7 110.44 38.28 L110.44 38.28 L110.44 38.28 Q111.36 38.86 111.78 39.86 L111.78 39.86 L111.78 34.2 L115.2 34.2 L115.2 49 L111.78 49 L111.78 46.98 L111.78 46.98 Q111.36 47.98 110.44 48.56 L110.44 48.56 L110.44 48.56 Q109.52 49.14 108.24 49.14 L108.24 49.14 L108.24 49.14 Q106.86 49.14 105.77 48.45 L105.77 48.45 L105.77 48.45 Q104.68 47.76 104.05 46.46 L104.05 46.46 L104.05 46.46 Q103.42 45.16 103.42 43.42 L103.42 43.42 L103.42 43.42 Q103.42 41.66 104.05 40.37 L104.05 40.37 L104.05 40.37 Q104.68 39.08 105.77 38.39 L105.77 38.39 L105.77 38.39 Q106.86 37.7 108.24 37.7 L108.24 37.7 L108.24 37.7 Z M109.34 40.7 L109.34 40.7 Q108.24 40.7 107.57 41.42 L107.57 41.42 L107.57 41.42 Q106.9 42.14 106.9 43.42 L106.9 43.42 L106.9 43.42 Q106.9 44.7 107.57 45.42 L107.57 45.42 L107.57 45.42 Q108.24 46.14 109.34 46.14 L109.34 46.14 L109.34 46.14 Q110.42 46.14 111.11 45.4 L111.11 45.4 L111.11 45.4 Q111.8 44.66 111.8 43.42 L111.8 43.42 L111.8 43.42 Q111.8 42.16 111.11 41.43 L111.11 41.43 L111.11 41.43 Q110.42 40.7 109.34 40.7 L109.34 40.7 L109.34 40.7 Z M124.52 37.7 L124.52 37.7 Q125.9 37.7 126.99 38.39 L126.99 38.39 L126.99 38.39 Q128.08 39.08 128.71 40.37 L128.71 40.37 L128.71 40.37 Q129.34 41.66 129.34 43.42 L129.34 43.42 L129.34 43.42 Q129.34 45.16 128.71 46.46 L128.71 46.46 L128.71 46.46 Q128.08 47.76 126.99 48.45 L126.99 48.45 L126.99 48.45 Q125.9 49.14 124.52 49.14 L124.52 49.14 L124.52 49.14 Q123.24 49.14 122.32 48.56 L122.32 48.56 L122.32 48.56 Q121.4 47.98 120.98 46.98 L120.98 46.98 L120.98 49 L117.56 49 L117.56 34.2 L120.98 34.2 L120.98 39.86 L120.98 39.86 Q121.4 38.86 122.32 38.28 L122.32 38.28 L122.32 38.28 Q123.24 37.7 124.52 37.7 L124.52 37.7 L124.52 37.7 Z M123.42 40.7 L123.42 40.7 Q122.34 40.7 121.65 41.43 L121.65 41.43 L121.65 41.43 Q120.96 42.16 120.96 43.42 L120.96 43.42 L120.96 43.42 Q120.96 44.66 121.65 45.4 L121.65 45.4 L121.65 45.4 Q122.34 46.14 123.42 46.14 L123.42 46.14 L123.42 46.14 Q124.52 46.14 125.19 45.42 L125.19 45.42 L125.19 45.42 Q125.86 44.7 125.86 43.42 L125.86 43.42 L125.86 43.42 Q125.86 42.14 125.19 41.42 L125.19 41.42 L125.19 41.42 Q124.52 40.7 123.42 40.7 L123.42 40.7 L123.42 40.7 Z M136.34 37.7 L136.34 37.7 Q138 37.7 139.31 38.39 L139.31 38.39 L139.31 38.39 Q140.62 39.08 141.37 40.38 L141.37 40.38 L141.37 40.38 Q142.12 41.68 142.12 43.42 L142.12 43.42 L142.12 43.42 Q142.12 45.16 141.37 46.46 L141.37 46.46 L141.37 46.46 Q140.62 47.76 139.31 48.45 L139.31 48.45 L139.31 48.45 Q138 49.14 136.34 49.14 L136.34 49.14 L136.34 49.14 Q134.68 49.14 133.36 48.45 L133.36 48.45 L133.36 48.45 Q132.04 47.76 131.29 46.46 L131.29 46.46 L131.29 46.46 Q130.54 45.16 130.54 43.42 L130.54 43.42 L130.54 43.42 Q130.54 41.68 131.29 40.38 L131.29 40.38 L131.29 40.38 Q132.04 39.08 133.36 38.39 L133.36 38.39 L133.36 38.39 Q134.68 37.7 136.34 37.7 L136.34 37.7 L136.34 37.7 Z M136.34 40.66 L136.34 40.66 Q135.36 40.66 134.69 41.37 L134.69 41.37 L134.69 41.37 Q134.02 42.08 134.02 43.42 L134.02 43.42 L134.02 43.42 Q134.02 44.76 134.69 45.46 L134.69 45.46 L134.69 45.46 Q135.36 46.16 136.34 46.16 L136.34 46.16 L136.34 46.16 Q137.32 46.16 137.98 45.46 L137.98 45.46 L137.98 45.46 Q138.64 44.76 138.64 43.42 L138.64 43.42 L138.64 43.42 Q138.64 42.08 137.98 41.37 L137.98 41.37 L137.98 41.37 Q137.32 40.66 136.34 40.66 L136.34 40.66 L136.34 40.66 Z M148.14 37.7 L148.14 37.7 Q149.42 37.7 150.34 38.28 L150.34 38.28 L150.34 38.28 Q151.26 38.86 151.7 39.86 L151.7 39.86 L151.7 37.84 L155.1 37.84 L155.1 49 L151.7 49 L151.7 46.98 L151.7 46.98 Q151.26 47.98 150.34 48.56 L150.34 48.56 L150.34 48.56 Q149.42 49.14 148.14 49.14 L148.14 49.14 L148.14 49.14 Q146.76 49.14 145.67 48.45 L145.67 48.45 L145.67 48.45 Q144.58 47.76 143.95 46.46 L143.95 46.46 L143.95 46.46 Q143.32 45.16 143.32 43.42 L143.32 43.42 L143.32 43.42 Q143.32 41.66 143.95 40.37 L143.95 40.37 L143.95 40.37 Q144.58 39.08 145.67 38.39 L145.67 38.39 L145.67 38.39 Q146.76 37.7 148.14 37.7 L148.14 37.7 L148.14 37.7 Z M149.24 40.7 L149.24 40.7 Q148.14 40.7 147.47 41.42 L147.47 41.42 L147.47 41.42 Q146.8 42.14 146.8 43.42 L146.8 43.42 L146.8 43.42 Q146.8 44.7 147.47 45.42 L147.47 45.42 L147.47 45.42 Q148.14 46.14 149.24 46.14 L149.24 46.14 L149.24 46.14 Q150.32 46.14 151.01 45.4 L151.01 45.4 L151.01 45.4 Q151.7 44.66 151.7 43.42 L151.7 43.42 L151.7 43.42 Q151.7 42.16 151.01 41.43 L151.01 41.43 L151.01 41.43 Q150.32 40.7 149.24 40.7 L149.24 40.7 L149.24 40.7 Z M160.88 39.94 L160.88 39.94 Q161.52 38.92 162.53 38.32 L162.53 38.32 L162.53 38.32 Q163.54 37.72 164.72 37.72 L164.72 37.72 L164.72 41.38 L163.74 41.38 L163.74 41.38 Q162.38 41.38 161.63 41.96 L161.63 41.96 L161.63 41.96 Q160.88 42.54 160.88 43.92 L160.88 43.92 L160.88 49 L157.46 49 L157.46 37.84 L160.88 37.84 L160.88 39.94 L160.88 39.94 Z M170.4 37.7 L170.4 37.7 Q171.68 37.7 172.6 38.28 L172.6 38.28 L172.6 38.28 Q173.52 38.86 173.94 39.86 L173.94 39.86 L173.94 34.2 L177.36 34.2 L177.36 49 L173.94 49 L173.94 46.98 L173.94 46.98 Q173.52 47.98 172.6 48.56 L172.6 48.56 L172.6 48.56 Q171.68 49.14 170.4 49.14 L170.4 49.14 L170.4 49.14 Q169.02 49.14 167.93 48.45 L167.93 48.45 L167.93 48.45 Q166.84 47.76 166.21 46.46 L166.21 46.46 L166.21 46.46 Q165.58 45.16 165.58 43.42 L165.58 43.42 L165.58 43.42 Q165.58 41.66 166.21 40.37 L166.21 40.37 L166.21 40.37 Q166.84 39.08 167.93 38.39 L167.93 38.39 L167.93 38.39 Q169.02 37.7 170.4 37.7 L170.4 37.7 L170.4 37.7 Z M171.5 40.7 L171.5 40.7 Q170.4 40.7 169.73 41.42 L169.73 41.42 L169.73 41.42 Q169.06 42.14 169.06 43.42 L169.06 43.42 L169.06 43.42 Q169.06 44.7 169.73 45.42 L169.73 45.42 L169.73 45.42 Q170.4 46.14 171.5 46.14 L171.5 46.14 L171.5 46.14 Q172.58 46.14 173.27 45.4 L173.27 45.4 L173.27 45.4 Q173.96 44.66 173.96 43.42 L173.96 43.42 L173.96 43.42 Q173.96 42.16 173.27 41.43 L173.27 41.43 L173.27 41.43 Q172.58 40.7 171.5 40.7 L171.5 40.7 L171.5 40.7 Z M62.9 15.04 L62.9 15.04 Q64.9 15.04 66.53 15.97 L66.53 15.97 L66.53 15.97 Q68.16 16.9 69.1 18.55 L69.1 18.55 L69.1 18.55 Q70.04 20.2 70.04 22.28 L70.04 22.28 L70.04 22.28 Q70.04 24.36 69.09 26.02 L69.09 26.02 L69.09 26.02 Q68.14 27.68 66.51 28.61 L66.51 28.61 L66.51 28.61 Q64.88 29.54 62.9 29.54 L62.9 29.54 L62.9 29.54 Q60.92 29.54 59.29 28.61 L59.29 28.61 L59.29 28.61 Q57.66 27.68 56.71 26.02 L56.71 26.02 L56.71 26.02 Q55.76 24.36 55.76 22.28 L55.76 22.28 L55.76 22.28 Q55.76 20.2 56.71 18.55 L56.71 18.55 L56.71 18.55 Q57.66 16.9 59.29 15.97 L59.29 15.97 L59.29 15.97 Q60.92 15.04 62.9 15.04 L62.9 15.04 L62.9 15.04 Z M62.9 18.22 L62.9 18.22 Q61.22 18.22 60.23 19.31 L60.23 19.31 L60.23 19.31 Q59.24 20.4 59.24 22.28 L59.24 22.28 L59.24 22.28 Q59.24 24.14 60.23 25.24 L60.23 25.24 L60.23 25.24 Q61.22 26.34 62.9 26.34 L62.9 26.34 L62.9 26.34 Q64.56 26.34 65.56 25.24 L65.56 25.24 L65.56 25.24 Q66.56 24.14 66.56 22.28 L66.56 22.28 L66.56 22.28 Q66.56 20.42 65.57 19.32 L65.57 19.32 L65.57 19.32 Q64.58 18.22 62.9 18.22 L62.9 18.22 L62.9 18.22 Z M79.04 18.12 L79.04 18.12 Q80.96 18.12 82.09 19.4 L82.09 19.4 L82.09 19.4 Q83.22 20.68 83.22 22.92 L83.22 22.92 L83.22 29.4 L79.8 29.4 L79.8 23.32 L79.8 23.32 Q79.8 22.2 79.21 21.57 L79.21 21.57 L79.21 21.57 Q78.62 20.94 77.64 20.94 L77.64 20.94 L77.64 20.94 Q76.6 20.94 75.99 21.6 L75.99 21.6 L75.99 21.6 Q75.38 22.26 75.38 23.48 L75.38 23.48 L75.38 29.4 L71.96 29.4 L71.96 18.24 L75.38 18.24 L75.38 20.28 L75.38 20.28 Q75.86 19.28 76.81 18.7 L76.81 18.7 L76.81 18.7 Q77.76 18.12 79.04 18.12 L79.04 18.12 L79.04 18.12 Z M85.48 14.6 L88.9 14.6 L88.9 29.4 L85.48 29.4 L85.48 14.6 L85.48 14.6 Z M90.94 15.1 L90.94 15.1 Q90.94 14.32 91.5 13.81 L91.5 13.81 L91.5 13.81 Q92.06 13.3 92.98 13.3 L92.98 13.3 L92.98 13.3 Q93.9 13.3 94.46 13.81 L94.46 13.81 L94.46 13.81 Q95.02 14.32 95.02 15.1 L95.02 15.1 L95.02 15.1 Q95.02 15.86 94.46 16.37 L94.46 16.37 L94.46 16.37 Q93.9 16.88 92.98 16.88 L92.98 16.88 L92.98 16.88 Q92.06 16.88 91.5 16.37 L91.5 16.37 L91.5 16.37 Q90.94 15.86 90.94 15.1 L90.94 15.1 L90.94 15.1 Z M91.26 18.24 L94.68 18.24 L94.68 29.4 L91.26 29.4 L91.26 18.24 L91.26 18.24 Z M104.12 18.12 L104.12 18.12 Q106.04 18.12 107.17 19.4 L107.17 19.4 L107.17 19.4 Q108.3 20.68 108.3 22.92 L108.3 22.92 L108.3 29.4 L104.88 29.4 L104.88 23.32 L104.88 23.32 Q104.88 22.2 104.29 21.57 L104.29 21.57 L104.29 21.57 Q103.7 20.94 102.72 20.94 L102.72 20.94 L102.72 20.94 Q101.68 20.94 101.07 21.6 L101.07 21.6 L101.07 21.6 Q100.46 22.26 100.46 23.48 L100.46 23.48 L100.46 29.4 L97.04 29.4 L97.04 18.24 L100.46 18.24 L100.46 20.28 L100.46 20.28 Q100.94 19.28 101.89 18.7 L101.89 18.7 L101.89 18.7 Q102.84 18.12 104.12 18.12 L104.12 18.12 L104.12 18.12 Z M121.16 23.52 L121.16 23.52 Q121.16 23.94 121.06 24.44 L121.06 24.44 L113.32 24.44 L113.32 24.44 Q113.38 25.7 113.96 26.25 L113.96 26.25 L113.96 26.25 Q114.54 26.8 115.44 26.8 L115.44 26.8 L115.44 26.8 Q116.2 26.8 116.7 26.42 L116.7 26.42 L116.7 26.42 Q117.2 26.04 117.36 25.44 L117.36 25.44 L120.98 25.44 L120.98 25.44 Q120.76 26.62 120.02 27.55 L120.02 27.55 L120.02 27.55 Q119.28 28.48 118.14 29.01 L118.14 29.01 L118.14 29.01 Q117 29.54 115.6 29.54 L115.6 29.54 L115.6 29.54 Q113.96 29.54 112.69 28.85 L112.69 28.85 L112.69 28.85 Q111.42 28.16 110.7 26.86 L110.7 26.86 L110.7 26.86 Q109.98 25.56 109.98 23.82 L109.98 23.82 L109.98 23.82 Q109.98 22.06 110.69 20.77 L110.69 20.77 L110.69 20.77 Q111.4 19.48 112.68 18.79 L112.68 18.79 L112.68 18.79 Q113.96 18.1 115.6 18.1 L115.6 18.1 L115.6 18.1 Q117.26 18.1 118.52 18.78 L118.52 18.78 L118.52 18.78 Q119.78 19.46 120.47 20.69 L120.47 20.69 L120.47 20.69 Q121.16 21.92 121.16 23.52 L121.16 23.52 L121.16 23.52 Z M117.7 23 L117.7 23 Q117.72 21.9 117.11 21.35 L117.11 21.35 L117.11 21.35 Q116.5 20.8 115.6 20.8 L115.6 20.8 L115.6 20.8 Q114.66 20.8 114.04 21.36 L114.04 21.36 L114.04 21.36 Q113.42 21.92 113.34 23 L113.34 23 L117.7 23 L117.7 23 Z" />
    </svg>

    <svg id="settings" viewBox="0 0 24 24" fill="currentColor" fill-rule="evenodd" clip-rule="evenodd">
      <path d="M12 8.00002C9.79085 8.00002 7.99999 9.79088 7.99999 12C7.99999 14.2092 9.79085 16 12 16C14.2091 16 16 14.2092 16 12C16 9.79088 14.2091 8.00002 12 8.00002ZM9.99999 12C9.99999 10.8955 10.8954 10 12 10C13.1046 10 14 10.8955 14 12C14 13.1046 13.1046 14 12 14C10.8954 14 9.99999 13.1046 9.99999 12Z" />
      <path d="M12 8.00002C9.79085 8.00002 7.99999 9.79088 7.99999 12C7.99999 14.2092 9.79085 16 12 16C14.2091 16 16 14.2092 16 12C16 9.79088 14.2091 8.00002 12 8.00002ZM9.99999 12C9.99999 10.8955 10.8954 10 12 10C13.1046 10 14 10.8955 14 12C14 13.1046 13.1046 14 12 14C10.8954 14 9.99999 13.1046 9.99999 12Z" />
      <path d="M10.7673 1.01709C10.9925 0.999829 11.2454 0.99993 11.4516 1.00001L12.5484 1.00001C12.7546 0.99993 13.0075 0.999829 13.2327 1.01709C13.4989 1.03749 13.8678 1.08936 14.2634 1.26937C14.7635 1.49689 15.1915 1.85736 15.5007 2.31147C15.7454 2.67075 15.8592 3.0255 15.9246 3.2843C15.9799 3.50334 16.0228 3.75249 16.0577 3.9557L16.1993 4.77635L16.2021 4.77788C16.2369 4.79712 16.2715 4.81659 16.306 4.8363L16.3086 4.83774L17.2455 4.49865C17.4356 4.42978 17.6693 4.34509 17.8835 4.28543C18.1371 4.2148 18.4954 4.13889 18.9216 4.17026C19.4614 4.20998 19.9803 4.39497 20.4235 4.70563C20.7734 4.95095 21.0029 5.23636 21.1546 5.4515C21.2829 5.63326 21.4103 5.84671 21.514 6.02029L22.0158 6.86003C22.1256 7.04345 22.2594 7.26713 22.3627 7.47527C22.4843 7.7203 22.6328 8.07474 22.6777 8.52067C22.7341 9.08222 22.6311 9.64831 22.3803 10.1539C22.1811 10.5554 21.9171 10.8347 21.7169 11.0212C21.5469 11.1795 21.3428 11.3417 21.1755 11.4746L20.5 12L21.1755 12.5254C21.3428 12.6584 21.5469 12.8205 21.7169 12.9789C21.9171 13.1653 22.1811 13.4446 22.3802 13.8461C22.631 14.3517 22.7341 14.9178 22.6776 15.4794C22.6328 15.9253 22.4842 16.2797 22.3626 16.5248C22.2593 16.7329 22.1255 16.9566 22.0158 17.14L21.5138 17.9799C21.4102 18.1535 21.2828 18.3668 21.1546 18.5485C21.0028 18.7637 20.7734 19.0491 20.4234 19.2944C19.9803 19.6051 19.4613 19.7901 18.9216 19.8298C18.4954 19.8612 18.1371 19.7852 17.8835 19.7146C17.6692 19.6549 17.4355 19.5703 17.2454 19.5014L16.3085 19.1623L16.306 19.1638C16.2715 19.1835 16.2369 19.2029 16.2021 19.2222L16.1993 19.2237L16.0577 20.0443C16.0228 20.2475 15.9799 20.4967 15.9246 20.7157C15.8592 20.9745 15.7454 21.3293 15.5007 21.6886C15.1915 22.1427 14.7635 22.5032 14.2634 22.7307C13.8678 22.9107 13.4989 22.9626 13.2327 22.983C13.0074 23.0002 12.7546 23.0001 12.5484 23H11.4516C11.2454 23.0001 10.9925 23.0002 10.7673 22.983C10.5011 22.9626 10.1322 22.9107 9.73655 22.7307C9.23648 22.5032 8.80849 22.1427 8.49926 21.6886C8.25461 21.3293 8.14077 20.9745 8.07542 20.7157C8.02011 20.4967 7.97723 20.2475 7.94225 20.0443L7.80068 19.2237L7.79791 19.2222C7.7631 19.2029 7.72845 19.1835 7.69396 19.1637L7.69142 19.1623L6.75458 19.5014C6.5645 19.5702 6.33078 19.6549 6.11651 19.7146C5.86288 19.7852 5.50463 19.8611 5.07841 19.8298C4.53866 19.7901 4.01971 19.6051 3.57654 19.2944C3.2266 19.0491 2.99714 18.7637 2.84539 18.5485C2.71718 18.3668 2.58974 18.1534 2.4861 17.9798L1.98418 17.14C1.87447 16.9566 1.74067 16.7329 1.63737 16.5248C1.51575 16.2797 1.36719 15.9253 1.32235 15.4794C1.26588 14.9178 1.36897 14.3517 1.61976 13.8461C1.81892 13.4446 2.08289 13.1653 2.28308 12.9789C2.45312 12.8205 2.65717 12.6584 2.82449 12.5254L3.47844 12.0054V11.9947L2.82445 11.4746C2.65712 11.3417 2.45308 11.1795 2.28304 11.0212C2.08285 10.8347 1.81888 10.5554 1.61972 10.1539C1.36893 9.64832 1.26584 9.08224 1.3223 8.52069C1.36714 8.07476 1.51571 7.72032 1.63732 7.47528C1.74062 7.26715 1.87443 7.04347 1.98414 6.86005L2.48605 6.02026C2.58969 5.84669 2.71714 5.63326 2.84534 5.45151C2.9971 5.23637 3.22655 4.95096 3.5765 4.70565C4.01966 4.39498 4.53862 4.20999 5.07837 4.17027C5.50458 4.1389 5.86284 4.21481 6.11646 4.28544C6.33072 4.34511 6.56444 4.4298 6.75451 4.49867L7.69141 4.83775L7.69394 4.8363C7.72844 4.8166 7.7631 4.79712 7.79791 4.77788L7.80068 4.77635L7.94225 3.95571C7.97723 3.7525 8.02011 3.50334 8.07542 3.2843C8.14077 3.0255 8.25461 2.67075 8.49926 2.31147C8.80849 1.85736 9.23648 1.49689 9.73655 1.26937C10.1322 1.08936 10.5011 1.03749 10.7673 1.01709ZM14.0938 4.3363C14.011 3.85634 13.9696 3.61637 13.8476 3.43717C13.7445 3.2858 13.6019 3.16564 13.4352 3.0898C13.2378 3.00002 12.9943 3.00002 12.5073 3.00002H11.4927C11.0057 3.00002 10.7621 3.00002 10.5648 3.0898C10.3981 3.16564 10.2555 3.2858 10.1524 3.43717C10.0304 3.61637 9.98895 3.85634 9.90615 4.3363L9.75012 5.24064C9.69445 5.56333 9.66662 5.72467 9.60765 5.84869C9.54975 5.97047 9.50241 6.03703 9.40636 6.13166C9.30853 6.22804 9.12753 6.3281 8.76554 6.52822C8.73884 6.54298 8.71227 6.55791 8.68582 6.57302C8.33956 6.77078 8.16643 6.86966 8.03785 6.90314C7.91158 6.93602 7.83293 6.94279 7.70289 6.93196C7.57049 6.92094 7.42216 6.86726 7.12551 6.7599L6.11194 6.39308C5.66271 6.2305 5.43809 6.14921 5.22515 6.16488C5.04524 6.17811 4.87225 6.23978 4.72453 6.34333C4.5497 6.46589 4.42715 6.67094 4.18206 7.08103L3.72269 7.84965C3.46394 8.2826 3.33456 8.49907 3.31227 8.72078C3.29345 8.90796 3.32781 9.09665 3.41141 9.26519C3.51042 9.4648 3.7078 9.62177 4.10256 9.9357L4.82745 10.5122C5.07927 10.7124 5.20518 10.8126 5.28411 10.9199C5.36944 11.036 5.40583 11.1114 5.44354 11.2504C5.47844 11.379 5.47844 11.586 5.47844 12C5.47844 12.414 5.47844 12.621 5.44354 12.7497C5.40582 12.8887 5.36944 12.9641 5.28413 13.0801C5.20518 13.1875 5.07927 13.2876 4.82743 13.4879L4.10261 14.0643C3.70785 14.3783 3.51047 14.5352 3.41145 14.7349C3.32785 14.9034 3.29349 15.0921 3.31231 15.2793C3.33461 15.501 3.46398 15.7174 3.72273 16.1504L4.1821 16.919C4.4272 17.3291 4.54974 17.5342 4.72457 17.6567C4.8723 17.7603 5.04528 17.8219 5.2252 17.8352C5.43813 17.8508 5.66275 17.7695 6.11199 17.607L7.12553 17.2402C7.42216 17.1328 7.5705 17.0791 7.7029 17.0681C7.83294 17.0573 7.91159 17.064 8.03786 17.0969C8.16644 17.1304 8.33956 17.2293 8.68582 17.427C8.71228 17.4421 8.73885 17.4571 8.76554 17.4718C9.12753 17.6719 9.30853 17.772 9.40635 17.8684C9.50241 17.963 9.54975 18.0296 9.60765 18.1514C9.66662 18.2754 9.69445 18.4367 9.75012 18.7594L9.90615 19.6637C9.98895 20.1437 10.0304 20.3837 10.1524 20.5629C10.2555 20.7142 10.3981 20.8344 10.5648 20.9102C10.7621 21 11.0057 21 11.4927 21H12.5073C12.9943 21 13.2378 21 13.4352 20.9102C13.6019 20.8344 13.7445 20.7142 13.8476 20.5629C13.9696 20.3837 14.011 20.1437 14.0938 19.6637L14.2499 18.7594C14.3055 18.4367 14.3334 18.2754 14.3923 18.1514C14.4502 18.0296 14.4976 17.963 14.5936 17.8684C14.6915 17.772 14.8725 17.6719 15.2344 17.4718C15.2611 17.4571 15.2877 17.4421 15.3141 17.427C15.6604 17.2293 15.8335 17.1304 15.9621 17.0969C16.0884 17.064 16.167 17.0573 16.2971 17.0681C16.4295 17.0791 16.5778 17.1328 16.8744 17.2402L17.888 17.607C18.3372 17.7696 18.5619 17.8509 18.7748 17.8352C18.9547 17.8219 19.1277 17.7603 19.2754 17.6567C19.4502 17.5342 19.5728 17.3291 19.8179 16.919L20.2773 16.1504C20.536 15.7175 20.6654 15.501 20.6877 15.2793C20.7065 15.0921 20.6721 14.9034 20.5885 14.7349C20.4895 14.5353 20.2921 14.3783 19.8974 14.0643L19.1726 13.4879C18.9207 13.2876 18.7948 13.1875 18.7159 13.0801C18.6306 12.9641 18.5942 12.8887 18.5564 12.7497C18.5215 12.6211 18.5215 12.414 18.5215 12C18.5215 11.586 18.5215 11.379 18.5564 11.2504C18.5942 11.1114 18.6306 11.036 18.7159 10.9199C18.7948 10.8126 18.9207 10.7124 19.1725 10.5122L19.8974 9.9357C20.2922 9.62176 20.4896 9.46479 20.5886 9.26517C20.6722 9.09664 20.7065 8.90795 20.6877 8.72076C20.6654 8.49906 20.5361 8.28259 20.2773 7.84964L19.8179 7.08102C19.5728 6.67093 19.4503 6.46588 19.2755 6.34332C19.1277 6.23977 18.9548 6.1781 18.7748 6.16486C18.5619 6.14919 18.3373 6.23048 17.888 6.39307L16.8745 6.75989C16.5778 6.86725 16.4295 6.92093 16.2971 6.93195C16.167 6.94278 16.0884 6.93601 15.9621 6.90313C15.8335 6.86965 15.6604 6.77077 15.3142 6.57302C15.2877 6.55791 15.2611 6.54298 15.2345 6.52822C14.8725 6.3281 14.6915 6.22804 14.5936 6.13166C14.4976 6.03703 14.4502 5.97047 14.3923 5.84869C14.3334 5.72467 14.3055 5.56332 14.2499 5.24064L14.0938 4.3363Z" />
    </svg>

    <svg id="volume" viewBox="0 0 24 24" fill="currentColor" fill-rule="evenodd" clip-rule="evenodd">
      <path d="M3 13C3 15.2091 4.79086 17 7 17H7.19669C7.69707 17 8.17928 17.1876 8.54814 17.5257L11.4773 20.2107C12.0311 20.7184 12.755 21 13.5063 21C14.7594 21 15.9494 20.2016 16.2601 18.8803C16.5904 17.476 17 15.1081 17 12C17 8.89192 16.5904 6.52403 16.2601 5.11974C15.9494 3.79838 14.7594 3 13.5063 3C12.755 3 12.0311 3.28161 11.4773 3.78926L8.54813 6.47431C8.17928 6.81243 7.69707 7 7.19669 7H7C4.79086 7 3 8.79086 3 11V13ZM7 15C5.89543 15 5 14.1046 5 13L5 11C5 9.89543 5.89543 9 7 9H7.19669C8.19745 9 9.16186 8.62486 9.89958 7.94862L12.8287 5.26357C13.0137 5.09404 13.2554 5 13.5063 5C13.9376 5 14.2384 5.25937 14.3132 5.57761C14.6134 6.85393 15 9.06723 15 12C15 14.9328 14.6134 17.1461 14.3132 18.4224C14.2384 18.7406 13.9376 19 13.5063 19C13.2554 19 13.0137 18.906 12.8287 18.7364L9.89958 16.0514C9.16187 15.3751 8.19745 15 7.19669 15H7Z" />
      <path d="M18.1056 14.5528C17.8586 15.0468 18.0588 15.6474 18.5528 15.8944C19.0468 16.1414 19.6474 15.9412 19.8944 15.4472C21.0352 13.1657 21.0352 10.8343 19.8944 8.55279C19.6474 8.05881 19.0468 7.85858 18.5528 8.10557C18.0588 8.35256 17.8586 8.95324 18.1056 9.44721C18.9648 11.1657 18.9648 12.8343 18.1056 14.5528Z" />
    </svg>

    <svg id="volume-mute" viewBox="0 0 24 24" fill="currentColor" fill-rule="evenodd" clip-rule="evenodd">
      <path d="M5.547 7.272L3.513 5.237C3.122 4.847 3.122 4.214 3.513 3.823C3.903 3.433 4.536 3.433 4.927 3.823L19.927 18.823C20.317 19.214 20.317 19.847 19.927 20.237C19.536 20.628 18.903 20.628 18.513 20.237L16.42 18.145C16.366 18.414 16.312 18.659 16.26 18.88C15.949 20.202 14.759 21 13.506 21C12.755 21 12.031 20.718 11.477 20.211L8.548 17.526C8.179 17.188 7.697 17 7.197 17L7 17C4.791 17 3 15.209 3 13L3 11C3 9.303 4.056 7.853 5.547 7.272ZM14.691 16.415C14.572 17.23 14.435 17.903 14.313 18.422C14.238 18.741 13.938 19 13.506 19C13.255 19 13.014 18.906 12.829 18.736L9.9 16.051C9.162 15.375 8.198 15 7.197 15L7 15C5.895 15 5 14.105 5 13L5 11C5 9.895 5.895 9 7 9L7.197 9C7.223 9 7.249 9 7.274 8.999L14.691 16.415Z" />
      <path d="M14.313 5.578C14.606 6.821 14.98 8.954 14.999 11.774L16.957 13.732C16.984 13.184 17 12.606 17 12C17 8.892 16.59 6.524 16.26 5.12C15.949 3.798 14.759 3 13.506 3C12.755 3 12.031 3.282 11.477 3.789L9.149 5.924L10.564 7.339L12.829 5.264C13.014 5.094 13.255 5 13.506 5C13.938 5 14.238 5.259 14.313 5.578Z" />
    </svg>

    <svg id="volume-max" viewBox="0 0 24 24" fill="currentColor" fill-rule="evenodd" clip-rule="evenodd">
      <path d="M2 13C2 15.2091 3.79086 17 6 17H6.19669C6.69707 17 7.17928 17.1876 7.54814 17.5257L10.4773 20.2107C11.0311 20.7184 11.755 21 12.5063 21C13.7594 21 14.9494 20.2016 15.2601 18.8803C15.5904 17.476 16 15.1081 16 12C16 8.89192 15.5904 6.52403 15.2601 5.11974C14.9494 3.79838 13.7594 3 12.5063 3C11.755 3 11.0311 3.28161 10.4773 3.78926L7.54813 6.47431C7.17928 6.81243 6.69707 7 6.19669 7H6C3.79086 7 2 8.79086 2 11V13ZM6 15C4.89543 15 4 14.1046 4 13V11C4 9.89543 4.89543 9 6 9H6.19669C7.19745 9 8.16186 8.62486 8.89958 7.94862L11.8287 5.26357C12.0137 5.09404 12.2554 5 12.5063 5C12.9376 5 13.2384 5.25937 13.3132 5.57761C13.6134 6.85393 14 9.06723 14 12C14 14.9328 13.6134 17.1461 13.3132 18.4224C13.2384 18.7406 12.9376 19 12.5063 19C12.2554 19 12.0137 18.906 11.8287 18.7364L8.89958 16.0514C8.16186 15.3751 7.19745 15 6.19669 15H6Z" />
      <path d="M20.5723 6.09607C21.0716 5.85987 21.6677 6.0731 21.9039 6.57232C22.6447 8.13791 22.9979 10.0843 23 11.9889C23.0021 13.8934 22.6531 15.8479 21.9036 17.4285C21.6669 17.9275 21.0706 18.1402 20.5715 17.9036C20.0725 17.6669 19.8598 17.0706 20.0964 16.5715C20.6881 15.3238 21.0018 13.679 21 11.991C20.9981 10.303 20.6808 8.66357 20.0961 7.42768C19.8599 6.92845 20.0731 6.33227 20.5723 6.09607Z" />
      <path d="M17.5528 15.8944C17.0588 15.6474 16.8586 15.0468 17.1056 14.5528C17.9648 12.8343 17.9648 11.1657 17.1056 9.44721C16.8586 8.95324 17.0588 8.35256 17.5528 8.10557C18.0468 7.85858 18.6474 8.05881 18.8944 8.55279C20.0352 10.8343 20.0352 13.1657 18.8944 15.4472C18.6474 15.9412 18.0468 16.1414 17.5528 15.8944Z" />
    </svg>

    <svg id="fullscreen" viewBox="0 0 24 24" fill="currentColor">
      <path d="M4 1.5C2.61929 1.5 1.5 2.61929 1.5 4V8.5C1.5 9.05228 1.94772 9.5 2.5 9.5H3.5C4.05228 9.5 4.5 9.05228 4.5 8.5V4.5H8.5C9.05228 4.5 9.5 4.05228 9.5 3.5V2.5C9.5 1.94772 9.05228 1.5 8.5 1.5H4Z" />
      <path d="M20 1.5C21.3807 1.5 22.5 2.61929 22.5 4V8.5C22.5 9.05228 22.0523 9.5 21.5 9.5H20.5C19.9477 9.5 19.5 9.05228 19.5 8.5V4.5H15.5C14.9477 4.5 14.5 4.05228 14.5 3.5V2.5C14.5 1.94772 14.9477 1.5 15.5 1.5H20Z" />
      <path d="M20 22.5C21.3807 22.5 22.5 21.3807 22.5 20V15.5C22.5 14.9477 22.0523 14.5 21.5 14.5H20.5C19.9477 14.5 19.5 14.9477 19.5 15.5V19.5H15.5C14.9477 19.5 14.5 19.9477 14.5 20.5V21.5C14.5 22.0523 14.9477 22.5 15.5 22.5H20Z" />
      <path d="M1.5 20C1.5 21.3807 2.61929 22.5 4 22.5H8.5C9.05228 22.5 9.5 22.0523 9.5 21.5V20.5C9.5 19.9477 9.05228 19.5 8.5 19.5H4.5V15.5C4.5 14.9477 4.05228 14.5 3.5 14.5H2.5C1.94772 14.5 1.5 14.9477 1.5 15.5V20Z" />
    </svg>

    <svg id="fullscreen-exit" viewBox="0 0 24 24" fill="currentColor">
      <path d="M7 9.5C8.38071 9.5 9.5 8.38071 9.5 7V2.5C9.5 1.94772 9.05228 1.5 8.5 1.5H7.5C6.94772 1.5 6.5 1.94772 6.5 2.5V6.5H2.5C1.94772 6.5 1.5 6.94772 1.5 7.5V8.5C1.5 9.05228 1.94772 9.5 2.5 9.5H7Z" />
      <path d="M17 9.5C15.6193 9.5 14.5 8.38071 14.5 7V2.5C14.5 1.94772 14.9477 1.5 15.5 1.5H16.5C17.0523 1.5 17.5 1.94772 17.5 2.5V6.5H21.5C22.0523 6.5 22.5 6.94772 22.5 7.5V8.5C22.5 9.05228 22.0523 9.5 21.5 9.5H17Z" />
      <path d="M17 14.5C15.6193 14.5 14.5 15.6193 14.5 17V21.5C14.5 22.0523 14.9477 22.5 15.5 22.5H16.5C17.0523 22.5 17.5 22.0523 17.5 21.5V17.5H21.5C22.0523 17.5 22.5 17.0523 22.5 16.5V15.5C22.5 14.9477 22.0523 14.5 21.5 14.5H17Z" />
      <path d="M9.5 17C9.5 15.6193 8.38071 14.5 7 14.5H2.5C1.94772 14.5 1.5 14.9477 1.5 15.5V16.5C1.5 17.0523 1.94772 17.5 2.5 17.5H6.5V21.5C6.5 22.0523 6.94772 22.5 7.5 22.5H8.5C9.05228 22.5 9.5 22.0523 9.5 21.5V17Z" />
    </svg>

    <svg id="unlocked" viewBox="0 0 24 24" fill="currentColor">
      <path fill-rule="evenodd" clip-rule="evenodd" d="M9.17157 4.17157C9.92172 3.42143 10.9391 3 12 3C13.0609 3 14.0783 3.42143 14.8284 4.17157C15.3871 4.73025 15.7635 5.4372 15.9192 6.20001C16.0297 6.74114 16.5579 7.09026 17.099 6.97979C17.6401 6.86933 17.9893 6.34111 17.8788 5.79999C17.6452 4.65591 17.0807 3.59545 16.2426 2.75736C15.1174 1.63214 13.5913 1 12 1C10.4087 1 8.88258 1.63214 7.75736 2.75736C6.63214 3.88258 6 5.4087 6 7V10H5C3.34315 10 2 11.3431 2 13V20C2 21.6569 3.34315 23 5 23H19C20.6569 23 22 21.6569 22 20V13C22 11.3431 20.6569 10 19 10H8V7C8 5.93913 8.42143 4.92172 9.17157 4.17157ZM5 12C4.44772 12 4 12.4477 4 13V20C4 20.5523 4.44772 21 5 21H19C19.5523 21 20 20.5523 20 20V13C20 12.4477 19.5523 12 19 12H5Z" />
    </svg>

    <svg id="locked" viewBox="0 0 24 24" fill="currentColor">
      <path fill-rule="evenodd" clip-rule="evenodd" d="M6 10V7C6 5.4087 6.63214 3.88258 7.75736 2.75736C8.88258 1.63214 10.4087 1 12 1C13.5913 1 15.1174 1.63214 16.2426 2.75736C17.3679 3.88258 18 5.4087 18 7V10H19C20.6569 10 22 11.3431 22 13V20C22 21.6569 20.6569 23 19 23H5C3.34315 23 2 21.6569 2 20V13C2 11.3431 3.34315 10 5 10H6ZM9.17157 4.17157C9.92172 3.42143 10.9391 3 12 3C13.0609 3 14.0783 3.42143 14.8284 4.17157C15.5786 4.92172 16 5.93913 16 7V10H8V7C8 5.93913 8.42143 4.92172 9.17157 4.17157ZM5 12C4.44772 12 4 12.4477 4 13V20C4 20.5523 4.44772 21 5 21H19C19.5523 21 20 20.5523 20 20V13C20 12.4477 19.5523 12 19 12H5Z" />
    </svg>

    <svg id="password" viewBox="0 0 52 52" fill-rule="evenodd" fill="currentColor">
      <path d="M38.769 23.861 L37.869 20.861 C37.569 20.061 36.769 19.561 35.869 19.861 L29.069 22.061 L29.069 15.361 C29.069 14.461 28.369 13.761 27.469 13.761 L24.369 13.761 C23.469 13.761 22.769 14.461 22.769 15.361 L22.769 22.061 L16.169 19.861 C15.369 19.561 14.469 20.061 14.169 20.861 L13.269 23.861 C12.969 24.661 13.469 25.561 14.269 25.861 L20.469 27.861 L15.969 33.961 C15.469 34.661 15.669 35.661 16.369 36.161 L18.969 37.961 C19.669 38.461 20.669 38.261 21.169 37.561 L26.069 30.761 L30.969 37.561 C31.469 38.261 32.469 38.461 33.169 37.961 L35.769 36.161 C36.469 35.661 36.669 34.661 36.169 33.961 L31.669 27.761 L37.769 25.761 C38.569 25.561 38.969 24.761 38.769 23.861 Z  M8.78 3 L43.22 3 C44.75 3 46.22 3.61 47.31 4.69 C48.39 5.78 49 7.25 49 8.78 L49 43.22 C49 44.75 48.39 46.22 47.31 47.31 C46.22 48.39 44.75 49 43.22 49 L8.78 49 C7.25 49 5.78 48.39 4.69 47.31 C3.61 46.22 3 44.75 3 43.22 L3 8.78 C3 7.25 3.61 5.78 4.69 4.69 C5.78 3.61 7.25 3 8.78 3 Z  M8.78 7 L43.22 7 C43.69 7 44.14 7.19 44.48 7.52 C44.81 7.86 45 8.31 45 8.78 L45 43.22 C45 43.69 44.81 44.14 44.48 44.48 C44.14 44.81 43.69 45 43.22 45 L8.78 45 C8.31 45 7.86 44.81 7.52 44.48 C7.19 44.14 7 43.69 7 43.22 L7 8.78 C7 8.31 7.19 7.86 7.52 7.52 C7.86 7.19 8.31 7 8.78 7 Z" />
    </svg>

    <svg id="sounds" viewBox="0 0 24 24" fill="none" vector-effect="non-scaling-stroke" stroke-width="2" stroke="currentColor" stroke-linejoin="round" stroke-linecap="round" stroke-miterlimit="4">
      <path d="M19 16 C19 17.657 17.657 19 16 19 C14.343 19 13 17.657 13 16 C13 14.343 14.343 13 16 13 C17.657 13 19 14.343 19 16 Z M19 16 L19 5 M19 5 L19 3 L23 3 L23 5 L19 5 Z" />
      <path d="M7 18 C7 19.657 5.657 21 4 21 C2.343 21 1 19.657 1 18 C1 16.343 2.343 15 4 15 C5.657 15 7 16.343 7 18 Z M7 18 L7 7 M7 7 L7 5 L11 5 L11 7 L7 7 Z" />
    </svg>

    <svg id="music-note" viewBox="0 0 24 24">
      <g stroke="none" stroke-width="1" fill="none" fill-rule="evenodd">
        <path d="M21,16 L21,6.54138 C21,4.68756 19.3354,3.27743 17.5068,3.5822 L11.5068,4.5822 C10.0602,4.82329 9,6.07486 9,7.54138 L9,18" stroke="currentColor" stroke-width="2" stroke-linecap="round" />
        <path d="M6.5,21 C7.88071,21 9,19.8807 9,18.5 L9,16 L6.5,16 C5.11929,16 4,17.1193 4,18.5 C4,19.8807 5.11929,21 6.5,21 Z" stroke="currentColor" stroke-width="2" stroke-linecap="round" />
        <path d="M18.5,19 C19.8807,19 21,17.8807 21,16.5 L21,14 L18.5,14 C17.1193,14 16,15.1193 16,16.5 C16,17.8807 17.1193,19 18.5,19 Z" stroke="currentColor" stroke-width="2" stroke-linecap="round" />
      </g>
    </svg>

    <svg id="delete" viewBox="0 0 24 24" fill="none" stroke="currentColor" stroke-width="2" stroke-linecap="round" stroke-linejoin="round">
      <path d="M6 7V18C6 19.1046 6.89543 20 8 20H16C17.1046 20 18 19.1046 18 18V7M6 7H5M6 7H8M18 7H19M18 7H16M10 11V16M14 11V16M8 7V5C8 3.89543 8.89543 3 10 3H14C15.1046 3 16 3.89543 16 5V7M8 7H16" />
    </svg>

    <svg id="edit" viewBox="0 0 24 24" fill="currentColor">
      <path d="M13.1739 3.5968C13.8662 3.2047 14.686 3.10369 15.4528 3.31598C15.7928 3.41011 16.0833 3.57409 16.3571 3.7593C16.6172 3.9352 16.9155 4.16808 17.2613 4.43799L17.3117 4.47737C17.6575 4.74728 17.9559 4.98016 18.1897 5.18977C18.4358 5.41046 18.6654 5.65248 18.8393 5.95945C19.2314 6.65177 19.3324 7.47151 19.1201 8.23831C19.026 8.5783 18.862 8.86883 18.6768 9.14267C18.5009 9.40276 18.268 9.70112 17.998 10.0469L10.8953 19.1462C10.8773 19.1692 10.8596 19.1919 10.8421 19.2144C10.5087 19.6419 10.2566 19.9651 9.9445 20.2306C9.68036 20.4553 9.38811 20.6447 9.07512 20.794C8.70535 20.9704 8.30733 21.0685 7.78084 21.1983C7.75324 21.2051 7.72528 21.212 7.69696 21.219L5.57214 21.7435C5.42499 21.7799 5.25702 21.8215 5.10885 21.8442C4.94367 21.8696 4.68789 21.8926 4.40539 21.8022C4.06579 21.6934 3.77603 21.4672 3.58809 21.1642C3.43175 20.9121 3.39197 20.6584 3.3765 20.492C3.36262 20.3427 3.36213 20.1697 3.3617 20.0181C3.36167 20.0087 3.36165 19.9994 3.36162 19.9902L3.35475 17.8295C3.35465 17.8003 3.35455 17.7715 3.35445 17.7431C3.3525 17.2009 3.35103 16.7909 3.4324 16.3894C3.50128 16.0495 3.61406 15.72 3.76791 15.4093C3.94967 15.0421 4.20204 14.7191 4.53586 14.2918C4.55336 14.2694 4.57109 14.2467 4.58905 14.2237L11.6918 5.12435C11.9617 4.77856 12.1946 4.48019 12.4042 4.2464C12.6249 4.00025 12.8669 3.77065 13.1739 3.5968ZM14.9191 5.24347C14.6635 5.17271 14.3903 5.20638 14.1595 5.33708C14.1203 5.35928 14.0459 5.41135 13.8934 5.5815C13.7348 5.75836 13.5438 6.00211 13.2487 6.38018L16.4018 8.84145C16.697 8.46338 16.887 8.21896 17.0201 8.02221C17.1482 7.83291 17.1806 7.74808 17.1926 7.70467C17.2634 7.44907 17.2297 7.17583 17.099 6.94505C17.0768 6.90586 17.0247 6.83145 16.8546 6.6789C16.6777 6.52033 16.434 6.32938 16.0559 6.03426C15.6778 5.73914 15.4334 5.54904 15.2367 5.41597C15.0474 5.28794 14.9625 5.25549 14.9191 5.24347ZM15.1712 10.418L12.0181 7.95674L6.16561 15.4543C5.75585 15.9792 5.6403 16.135 5.56031 16.2966C5.48339 16.452 5.42699 16.6167 5.39256 16.7866C5.35675 16.9633 5.35262 17.1572 5.35474 17.8231L5.36082 19.7357L7.2176 19.2773C7.86411 19.1177 8.05119 19.0666 8.21391 18.9889C8.37041 18.9143 8.51653 18.8196 8.64861 18.7072C8.78593 18.5904 8.90897 18.4405 9.31872 17.9156L15.1712 10.418ZM12 21C12 20.4477 12.4477 20 13 20H20C20.5523 20 21 20.4477 21 21C21 21.5523 20.5523 22 20 22H13C12.4477 22 12 21.5523 12 21Z" />
    </svg>

    <svg id="download" viewBox="0 0 24 24" fill="none" stroke="currentColor" stroke-width="2" stroke-linecap="round" stroke-linejoin="round">
      <path d="M12.5 4V17M12.5 17L7 12.2105M12.5 17L18 12.2105" />
      <path d="M6 21H19" />
    </svg>

    <svg id="arrow-up" viewBox="0 0 1024 1024" fill="currentColor">
      <path d="M104.704 685.248a64 64 0 0 0 90.496 0l316.8-316.8 316.8 316.8a64 64 0 0 0 90.496-90.496L557.248 232.704a64 64 0 0 0-90.496 0L104.704 594.752a64 64 0 0 0 0 90.496z" />
    </svg>

    <svg id="arrow-down" viewBox="0 0 1024 1024" fill="currentColor">
      <path d="M104.704 338.752a64 64 0 0 1 90.496 0l316.8 316.8 316.8-316.8a64 64 0 0 1 90.496 90.496L557.248 791.296a64 64 0 0 1-90.496 0L104.704 429.248a64 64 0 0 1 0-90.496z" />
    </svg>
  </defs>
</svg>